<svg width="921" height="921" viewBox="0 0 921 921" fill="none" xmlns="http://www.w3.org/2000/svg">
<path d="M276.448 225.201C233.317 237.27 191.894 257.528 164 283.845L162.807 485.97C161.623 492.407 161 499.088 161 505.992C161 512.436 161.542 518.687 162.577 524.726L161.7 673.446C214.65 646.246 274.25 630.195 338 628.345L337.5 628.396C340.55 628.296 343.65 628.246 346.75 628.246C379.8 628.246 411.7 633.045 439.45 641.345L440.379 256.492L489.921 251.758L489.063 395.866C468.518 416.013 455.384 443.203 455.384 474.991C455.384 506.293 468.12 533.137 488.127 553.187L487.6 641.946C517.7 633.046 549.55 628.246 582.55 628.246C585.2 628.246 587.8 628.295 590.6 628.345C653.708 630.194 713.272 646.224 763.9 672.294L764.05 283.996C749.959 270.685 732.193 258.917 712.384 248.968V192.463C750.49 209.645 784.873 233.618 814 262.845V297.845L864 312.845V812.845L529 742.846H399L64 812.845V312.845L114 297.845V262.845C157.885 218.771 213.776 186.646 276.448 171.739V225.201ZM637.799 67.1402C656.89 65.4127 673.384 79.8733 673.384 98.3365V475C673.383 518.078 633.313 553 583.884 553C534.454 553 494.384 518.078 494.384 475C494.384 431.921 534.454 397 583.884 397C592.179 397 600.209 397.984 607.832 399.825V201.325L381 222.997V506.001L380.992 507.008C380.366 549.622 340.091 584.001 290.5 584.001C240.519 584.001 200 549.078 200 506.001C200 462.922 240.518 428.001 290.5 428.001C299.154 428.001 307.523 429.048 315.448 431.002V124.844C315.448 108.675 328.225 95.1611 344.942 93.648L637.799 67.1402Z" fill="url(#paint0_linear_689_6)"/>
<defs>
<linearGradient id="paint0_linear_689_6" x1="226" y1="144.5" x2="464" y2="812.845" gradientUnits="userSpaceOnUse">
<stop offset="0.5" stop-color="white"/>
<stop offset="0.5" stop-color="#C4EFFF"/>
</linearGradient>
</defs>
</svg>
