<svg width="921" height="921" viewBox="0 0 921 921" fill="none" xmlns="http://www.w3.org/2000/svg">
<g clip-path="url(#clip0_694_2)">
<rect x="-20" y="-309" width="1166" height="1299" fill="url(#paint0_linear_694_2)"/>
<path d="M292.672 266.985C253.962 277.817 216.784 295.997 191.75 319.617L190.679 501.024C189.617 506.801 189.058 512.797 189.058 518.993C189.058 524.776 189.544 530.386 190.473 535.806L189.686 669.283C237.208 644.871 290.699 630.466 347.915 628.806L347.466 628.85C350.203 628.761 352.986 628.716 355.769 628.716C385.431 628.716 414.061 633.023 438.967 640.473L439.8 295.066L484.264 290.818L483.494 420.154C465.054 438.236 453.267 462.639 453.267 491.169C453.267 519.263 464.698 543.355 482.654 561.35L482.181 641.012C509.195 633.024 537.781 628.716 567.398 628.716C569.777 628.716 572.11 628.761 574.623 628.806C631.263 630.465 684.721 644.852 730.16 668.25L730.295 319.751C717.649 307.805 701.704 297.243 683.925 288.314V237.602C718.125 253.023 748.984 274.538 775.125 300.769V332.182L820 345.644V794.394L519.338 731.569H402.662L102 794.394V345.644L146.875 332.182V300.769C186.261 261.213 236.424 232.38 292.672 219.001V266.985ZM616.983 125.126C634.118 123.575 648.922 136.554 648.922 153.125V491.18L648.915 492.085C648.359 530.33 612.611 561.184 568.595 561.184C524.232 561.184 488.269 529.842 488.269 491.18C488.269 452.517 524.232 421.175 568.595 421.175C576.039 421.175 583.247 422.058 590.088 423.71V245.557L386.507 265.007V519.003L386.5 519.907C385.938 558.153 349.791 589.008 305.283 589.008C260.425 589.007 224.06 557.665 224.06 519.003C224.06 480.34 260.425 448.997 305.283 448.997C313.049 448.997 320.561 449.937 327.674 451.691V176.915C327.674 162.403 339.141 150.274 354.146 148.916L616.983 125.126Z" fill="url(#paint1_linear_694_2)"/>
</g>
<defs>
<linearGradient id="paint0_linear_694_2" x1="928.5" y1="-9.50004" x2="-160" y2="798" gradientUnits="userSpaceOnUse">
<stop offset="0.5"/>
<stop offset="0.5" stop-color="#08002A"/>
</linearGradient>
<linearGradient id="paint1_linear_694_2" x1="247.395" y1="194.556" x2="460.999" y2="794.395" gradientUnits="userSpaceOnUse">
<stop offset="0.5" stop-color="white"/>
<stop offset="0.5" stop-color="#C4EFFF"/>
</linearGradient>
<clipPath id="clip0_694_2">
<rect width="921" height="921" fill="white"/>
</clipPath>
</defs>
</svg>
